<?xml version="1.0" encoding="UTF-8"?>
<svg version="1.1" xmlns="http://www.w3.org/2000/svg" width="1080" height="127">
<path d="M0 0 C24 0 24 0 28.25 3.75 C29.20950636 5.81395327 30.11854623 7.9015256 31 10 C32.77283575 13.13276902 34.67873217 16.18301942 36.5625 19.25 C37.60046233 20.99259462 38.63687943 22.73611042 39.671875 24.48046875 C44.1870294 32.02239881 48.93419055 39.41564724 53.67578125 46.81640625 C54.48136475 48.07541748 54.48136475 48.07541748 55.30322266 49.35986328 C56.52006823 51.25323997 57.74460663 53.14168105 58.97412109 55.02685547 C59.61559082 56.0170166 60.25706055 57.00717773 60.91796875 58.02734375 C61.50731201 58.930896 62.09665527 59.83444824 62.70385742 60.76538086 C64 63 64 63 64 65 C64.66 65 65.32 65 66 65 C66 43.55 66 22.1 66 0 C72.6 0 79.2 0 86 0 C86 33.66 86 67.32 86 102 C78.74 102 71.48 102 64 102 C56.89376967 93.22171547 56.89376967 93.22171547 54.91015625 88.875 C51.74899094 82.32774673 47.92991044 76.27337756 44.0625 70.125 C42.70569057 67.92089549 41.35151257 65.7151689 40 63.5078125 C35.65499171 56.43135483 31.28126885 49.37282271 26.89672852 42.32080078 C26.14540649 41.11012939 26.14540649 41.11012939 25.37890625 39.875 C24.9413501 39.17117187 24.50379395 38.46734375 24.05297852 37.7421875 C23 36 23 36 22 34 C21.67 56.44 21.34 78.88 21 102 C14.07 102 7.14 102 0 102 C0 68.34 0 34.68 0 0 Z " fill="#FEFEFE" transform="translate(496,11)"/>
<path d="M0 0 C6.16133544 4.31180012 10.67749055 9.18834461 12.62109375 16.609375 C11.04016321 17.73774909 9.45624659 18.86194018 7.87109375 19.984375 C6.989375 20.61085938 6.10765625 21.23734375 5.19921875 21.8828125 C-0.36533159 25.609375 -0.36533159 25.609375 -3.37890625 25.609375 C-5.37890625 24.609375 -5.37890625 24.609375 -7.19140625 21.796875 C-10.43925183 17.06430002 -14.6961977 14.68254838 -20.37890625 13.609375 C-29.33408157 12.99341056 -36.72627445 13.03875059 -44.06640625 18.671875 C-53.0790356 30.12035012 -53.1783919 42.65390881 -52.37890625 56.609375 C-51.38151426 64.46172379 -49.16574112 71.01918015 -43.37890625 76.609375 C-36.5758016 80.91337998 -28.76443795 81.70371504 -20.9375 80.11328125 C-15.98790813 78.66999005 -13.1073288 77.19312488 -10.37890625 72.609375 C-7.85673077 67.8305162 -8.03145905 64.4823502 -7.37890625 58.609375 C-15.29890625 58.609375 -23.21890625 58.609375 -31.37890625 58.609375 C-31.37890625 52.999375 -31.37890625 47.389375 -31.37890625 41.609375 C-16.52890625 41.609375 -1.67890625 41.609375 13.62109375 41.609375 C13.62109375 60.089375 13.62109375 78.569375 13.62109375 97.609375 C7.02109375 97.609375 0.42109375 97.609375 -6.37890625 97.609375 C-6.70890625 93.649375 -7.03890625 89.689375 -7.37890625 85.609375 C-8.24515625 86.846875 -9.11140625 88.084375 -10.00390625 89.359375 C-14.05781761 94.72038863 -18.28302792 97.88518942 -24.99609375 99.2890625 C-36.45758936 100.82978814 -48.16205027 99.64302477 -57.81640625 92.796875 C-59.0337888 91.76874941 -60.2233959 90.70657978 -61.37890625 89.609375 C-62.19101562 88.83980469 -62.19101562 88.83980469 -63.01953125 88.0546875 C-74.01170108 76.45184157 -76.05041947 58.68501905 -75.66015625 43.3671875 C-74.55281943 28.57193718 -71.19338886 15.05473804 -59.94140625 4.58203125 C-43.92505093 -7.74763253 -17.74331379 -10.37211775 0 0 Z " fill="#FEFEFE" transform="translate(361.37890625,15.390625)"/>
<path d="M0 0 C57.79283887 0 57.79283887 0 67 8 C73.68027173 16.49158919 73.89955616 25.58679971 73 36 C71.42763163 42.8903786 66.7530533 46.3431087 61 50 C59.35178756 51.03013277 57.69403834 52.04710343 56 53 C57.051875 53.763125 58.10375 54.52625 59.1875 55.3125 C66.95213453 62.01929034 69.44045388 73.6247765 72.6496582 83.05517578 C73.321966 85.02777391 74.00517836 86.99636878 74.68945312 88.96484375 C75.12303816 90.22634191 75.55600468 91.48805287 75.98828125 92.75 C76.37540283 93.87921875 76.76252441 95.0084375 77.16137695 96.171875 C78 99 78 99 78 102 C70.74 102 63.48 102 56 102 C54.87851562 98.53113281 54.87851562 98.53113281 53.734375 94.9921875 C52.99845801 92.73755245 52.25939157 90.4839728 51.52001953 88.23046875 C51.01053612 86.67197288 50.50429852 85.11241184 50.00146484 83.55175781 C49.27526064 81.29980576 48.53720463 79.05202966 47.796875 76.8046875 C47.57690857 76.1138205 47.35694214 75.42295349 47.13031006 74.71115112 C45.65765704 70.29015748 43.99420557 66.58892683 41 63 C33.83217969 60.33535628 33.83217969 60.33535628 21 60 C21 73.86 21 87.72 21 102 C14.07 102 7.14 102 0 102 C0 68.34 0 34.68 0 0 Z M21 17 C21 25.58 21 34.16 21 43 C26.7853125 43.0928125 26.7853125 43.0928125 32.6875 43.1875 C33.89494873 43.21481201 35.10239746 43.24212402 36.34643555 43.27026367 C37.308479 43.27775635 38.27052246 43.28524902 39.26171875 43.29296875 C40.24100342 43.3086792 41.22028809 43.32438965 42.22924805 43.34057617 C45.52538239 42.93542088 47.34567087 41.9708774 50 40 C52.88551746 35.19080423 53.4508435 31.61513584 52.57421875 26.08203125 C51.71242358 22.95729094 50.37456819 21.1766875 48 19 C44.43874418 17.27791689 41.63720039 16.75862924 37.69921875 16.8046875 C36.81838623 16.80968262 35.93755371 16.81467773 35.0300293 16.81982422 C33.92699463 16.83803223 32.82395996 16.85624023 31.6875 16.875 C28.160625 16.91625 24.63375 16.9575 21 17 Z " fill="#FEFEFE" transform="translate(641,11)"/>
<path d="M0 0 C8.91 0 17.82 0 27 0 C30.16693683 7.60064838 33.1567627 15.02935305 35.75 22.80859375 C36.08548355 23.80238037 36.4209671 24.79616699 36.76661682 25.82006836 C37.84800805 29.02467954 38.92397458 32.23108365 40 35.4375 C41.50618915 39.90724074 43.01596404 44.37576191 44.52734375 48.84375 C44.90326157 49.95560165 45.27917938 51.06745331 45.66648865 52.21299744 C48.06632949 59.29396851 50.51046734 66.35770842 53.00390625 73.40625 C53.31033051 74.27266617 53.61675476 75.13908234 53.9324646 76.03175354 C55.36063483 80.06295871 56.79659094 84.09125548 58.24023438 88.11694336 C58.74484553 89.53497432 59.24940606 90.9530233 59.75390625 92.37109375 C60.40854858 94.1953186 60.40854858 94.1953186 61.07641602 96.05639648 C62 99 62 99 62 102 C54.74 102 47.48 102 40 102 C38.845 98.761875 37.69 95.52375 36.5 92.1875 C36.13455078 91.17067139 35.76910156 90.15384277 35.39257812 89.10620117 C35.10833984 88.30158447 34.82410156 87.49696777 34.53125 86.66796875 C34.09135742 85.43469849 34.09135742 85.43469849 33.64257812 84.17651367 C33 82 33 82 33 79 C20.46 79.33 7.92 79.66 -5 80 C-7.2619525 86.86500943 -7.2619525 86.86500943 -9.51733398 93.73217773 C-9.79907471 94.58239502 -10.08081543 95.4326123 -10.37109375 96.30859375 C-10.65911865 97.18314209 -10.94714355 98.05769043 -11.24389648 98.95874023 C-12 101 -12 101 -13 102 C-14.56172745 102.08685603 -16.12729344 102.10702219 -17.69140625 102.09765625 C-18.63564453 102.09443359 -19.57988281 102.09121094 -20.55273438 102.08789062 C-21.54595703 102.07951172 -22.53917969 102.07113281 -23.5625 102.0625 C-24.55958984 102.05798828 -25.55667969 102.05347656 -26.58398438 102.04882812 C-29.05605138 102.03700005 -31.52798665 102.01967958 -34 102 C-32.46423459 94.12867342 -29.97742839 86.70379497 -27.34375 79.140625 C-26.87688828 77.78821432 -26.41046751 76.43565135 -25.94445801 75.08294678 C-24.71637681 71.52192496 -23.48244286 67.96295917 -22.24719238 64.40441895 C-21.02853333 60.89059544 -19.81522413 57.37492703 -18.6015625 53.859375 C-16.68898457 48.32129838 -14.77337832 42.78427919 -12.85546875 37.24804688 C-8.55625282 24.83688082 -4.27986339 12.41785182 0 0 Z M13 22 C11.28526381 27.07010096 9.57642653 32.14213679 7.87304688 37.21606445 C7.29263794 38.94219674 6.71061526 40.66778728 6.12695312 42.39282227 C5.28872539 44.87115377 4.45630328 47.35136985 3.625 49.83203125 C3.36251465 50.60400345 3.1000293 51.37597565 2.82958984 52.17134094 C1.8105184 55.22759412 1 57.75552755 1 61 C9.58 61 18.16 61 27 61 C25.33326678 55.76533633 23.66292805 50.5321298 21.98291016 45.30175781 C21.4123439 43.52153914 20.843973 41.74061531 20.27783203 39.95898438 C19.4644046 37.40046307 18.64315496 34.844569 17.8203125 32.2890625 C17.56814972 31.49005524 17.31598694 30.69104797 17.05618286 29.86782837 C15.70752066 25.54615295 15.70752066 25.54615295 13 22 Z " fill="#FEFEFE" transform="translate(420,11)"/>
<path d="M0 0 C8.91 0 17.82 0 27 0 C35.2999528 23.58860535 43.50927013 47.20789879 51.65549088 70.8499794 C52.37716851 72.94379151 53.09944188 75.03739727 53.8218689 77.13095093 C55.18267734 81.07491128 56.54075447 85.01980638 57.8984375 88.96484375 C58.31340988 90.16719666 58.72838226 91.36954956 59.15592957 92.6083374 C59.71948906 94.24841766 59.71948906 94.24841766 60.29443359 95.92163086 C60.62526947 96.8824205 60.95610535 97.84321014 61.29696655 98.83311462 C62 101 62 101 62 102 C54.41 102 46.82 102 39 102 C35.535 91.11 35.535 91.11 32 80 C19.46 79.67 6.92 79.34 -6 79 C-6.99 82.96 -7.98 86.92 -9 91 C-10.21643538 94.72660471 -11.60153536 98.33505819 -13 102 C-20.26 102 -27.52 102 -35 102 C-31.62401327 90.74671089 -31.62401327 90.74671089 -30.21337891 86.58666992 C-29.89475388 85.6445163 -29.57612885 84.70236267 -29.24784851 83.73165894 C-28.91082413 82.74126617 -28.57379974 81.75087341 -28.2265625 80.73046875 C-27.86605301 79.66708282 -27.50554352 78.6036969 -27.1341095 77.50808716 C-25.96656463 74.06715392 -24.79603887 70.62724557 -23.625 67.1875 C-23.22693146 66.01657806 -22.82886292 64.84565613 -22.41873169 63.63925171 C-17.15949355 48.17319585 -11.85414179 32.72417773 -6.4375 17.3125 C-6.16246643 16.52910248 -5.88743286 15.74570496 -5.60406494 14.93856812 C-1.19058402 2.38116804 -1.19058402 2.38116804 0 0 Z M13 22 C9.60301835 30.03913277 6.88829588 38.24800078 4.25 46.5625 C3.83493249 47.85751713 3.41956971 49.15243966 3.00390625 50.44726562 C0.98802147 55.62358484 0.98802147 55.62358484 0 61 C8.58 61 17.16 61 26 61 C23.50883591 51.84579555 23.50883591 51.84579555 20.73828125 42.80078125 C20.34189453 41.57294922 19.94550781 40.34511719 19.53710938 39.08007812 C19.13298828 37.83677734 18.72886719 36.59347656 18.3125 35.3125 C17.89234835 34.01374618 17.47242511 32.71491846 17.05273438 31.41601562 C16.0373886 28.27661316 15.01976774 25.13796828 14 22 C13.67 22 13.34 22 13 22 Z " fill="#FEFEFE" transform="translate(937,11)"/>
<path d="M0 0 C8.91 0 17.82 0 27 0 C35.2999528 23.58860535 43.50927013 47.20789879 51.65549088 70.8499794 C52.37716851 72.94379151 53.09944188 75.03739727 53.8218689 77.13095093 C55.18267734 81.07491128 56.54075447 85.01980638 57.8984375 88.96484375 C58.31340988 90.16719666 58.72838226 91.36954956 59.15592957 92.6083374 C59.71948906 94.24841766 59.71948906 94.24841766 60.29443359 95.92163086 C60.62526947 96.8824205 60.95610535 97.84321014 61.29696655 98.83311462 C62 101 62 101 62 102 C54.41 102 46.82 102 39 102 C35.535 91.11 35.535 91.11 32 80 C19.46 79.67 6.92 79.34 -6 79 C-6.99 82.96 -7.98 86.92 -9 91 C-10.21643538 94.72660471 -11.60153536 98.33505819 -13 102 C-20.26 102 -27.52 102 -35 102 C-31.62401327 90.74671089 -31.62401327 90.74671089 -30.21337891 86.58666992 C-29.89475388 85.6445163 -29.57612885 84.70236267 -29.24784851 83.73165894 C-28.91082413 82.74126617 -28.57379974 81.75087341 -28.2265625 80.73046875 C-27.86605301 79.66708282 -27.50554352 78.6036969 -27.1341095 77.50808716 C-25.96656463 74.06715392 -24.79603887 70.62724557 -23.625 67.1875 C-23.22693146 66.01657806 -22.82886292 64.84565613 -22.41873169 63.63925171 C-17.15949355 48.17319585 -11.85414179 32.72417773 -6.4375 17.3125 C-6.16246643 16.52910248 -5.88743286 15.74570496 -5.60406494 14.93856812 C-1.19058402 2.38116804 -1.19058402 2.38116804 0 0 Z M13 22 C9.60301835 30.03913277 6.88829588 38.24800078 4.25 46.5625 C3.83493249 47.85751713 3.41956971 49.15243966 3.00390625 50.44726562 C0.98802147 55.62358484 0.98802147 55.62358484 0 61 C8.58 61 17.16 61 26 61 C23.50883591 51.84579555 23.50883591 51.84579555 20.73828125 42.80078125 C20.34189453 41.57294922 19.94550781 40.34511719 19.53710938 39.08007812 C19.13298828 37.83677734 18.72886719 36.59347656 18.3125 35.3125 C17.89234835 34.01374618 17.47242511 32.71491846 17.05273438 31.41601562 C16.0373886 28.27661316 15.01976774 25.13796828 14 22 C13.67 22 13.34 22 13 22 Z " fill="#FEFEFE" transform="translate(759,11)"/>
<path d="M0 0 C6.93 0 13.86 0 21 0 C21.01458252 2.07861328 21.02916504 4.15722656 21.04418945 6.29882812 C21.09466232 13.18806707 21.16127938 20.077083 21.23571491 26.9661026 C21.28032786 31.1404678 21.31960359 35.31473745 21.34643555 39.48925781 C21.37255962 43.52245219 21.41302529 47.55527706 21.46318626 51.58824158 C21.47979372 53.1222624 21.49134596 54.65634704 21.49761391 56.19044495 C21.37553608 69.44991768 21.37553608 69.44991768 27.4375 80.875 C32.63597957 84.68033865 39.53535391 85.19409782 45.7890625 84.84375 C51.54923397 83.9388288 55.10820877 82.36639991 59 78 C62.92961982 70.33992237 62.47737289 62.3124985 62.51171875 53.90625 C62.52858578 52.34825239 62.54673872 50.79026821 62.56611633 49.2322998 C62.61340308 45.15535686 62.64334971 41.07846844 62.66955566 37.00134277 C62.69946951 32.83151488 62.74596235 28.66187443 62.79101562 24.4921875 C62.8768059 16.32820207 62.94272378 8.16423532 63 0 C69.93 0 76.86 0 84 0 C84.04534633 8.95415546 84.08197081 17.90823353 84.10362434 26.86247826 C84.11402163 31.02115552 84.12810595 35.17974954 84.15087891 39.33837891 C84.17275294 43.35842319 84.18459905 47.37838784 84.18975449 51.39848709 C84.19342428 52.9253324 84.20058981 54.45217381 84.21146011 55.97898483 C84.31038863 70.46202545 83.45150438 84.11745684 73.109375 95.2109375 C62.22122648 104.4457005 47.50783515 104.63404124 34 104 C24.80224063 103.21234657 14.86142396 99.59510683 8.5 92.6875 C-0.28867438 80.87448767 -0.29779973 66.96288453 -0.1953125 52.83203125 C-0.19157351 51.30075772 -0.18873073 49.76948176 -0.18673706 48.23820496 C-0.17917026 44.24503756 -0.15958321 40.25202007 -0.1373291 36.25891113 C-0.11671918 32.16937283 -0.10770325 28.07980985 -0.09765625 23.99023438 C-0.07632934 15.99341376 -0.04120562 7.99674291 0 0 Z " fill="#FEFEFE" transform="translate(183,11)"/>
<path d="M0 0 C7.5801394 -1.52817491 15.59709469 -2.75162226 23 0 C29.08216819 5.54543094 32.2410296 13.5521899 35.5703125 20.93408203 C37.53855962 25.15492345 39.90276142 29.06051795 42.375 33 C43.09323338 34.18623856 43.80964023 35.37358682 44.5234375 36.5625 C45.25433594 37.7690625 45.25433594 37.7690625 46 39 C48.3791947 35.97776766 50.28351941 32.85614023 52.14453125 29.4921875 C53.03688477 27.88730469 53.03688477 27.88730469 53.94726562 26.25 C54.56279297 25.13625 55.17832031 24.0225 55.8125 22.875 C57.62162893 19.60814178 59.43388119 16.34524339 61.28515625 13.10205078 C63.02035028 10.05292266 63.02035028 10.05292266 64.38671875 6.98779297 C65.72448007 4.26249091 66.86417772 2.16048536 69 0 C72.86668944 -1.18452584 76.37828368 -0.96020847 80.375 -0.625 C81.90833984 -0.55732422 81.90833984 -0.55732422 83.47265625 -0.48828125 C85.98783616 -0.37074948 88.49085604 -0.20692002 91 0 C89.75949617 4.01076712 88.29583047 7.55666319 86.234375 11.2109375 C85.68056152 12.19723145 85.12674805 13.18352539 84.55615234 14.19970703 C83.96012207 15.24755371 83.3640918 16.29540039 82.75 17.375 C82.13463379 18.46538574 81.51926758 19.55577148 80.88525391 20.67919922 C74.86539106 31.31210084 68.71388317 41.86835884 62.51708984 52.39892578 C62.0164502 53.25728027 61.51581055 54.11563477 61 55 C60.29149902 56.06468506 59.58299805 57.12937012 58.85302734 58.22631836 C56.41188687 62.52877492 56.39773979 66.57614426 56.390625 71.43359375 C56.37408875 72.31153091 56.35755249 73.18946808 56.34051514 74.0940094 C56.29225275 76.87524564 56.27071301 79.65593599 56.25 82.4375 C56.22182206 84.33270943 56.19189209 86.22789368 56.16015625 88.12304688 C56.08322667 92.74894373 56.04250667 97.37314896 56 102 C49.07 102 42.14 102 35 102 C35.1134375 99.36515625 35.226875 96.7303125 35.34375 94.015625 C36.00441095 70.61457301 33.80683555 55.57261792 20.19970703 36.23632812 C16.49596575 30.78718335 13.40913921 25.02865411 10.25 19.25 C9.13075583 17.25490109 8.0109993 15.26008949 6.890625 13.265625 C4.46738301 8.90001783 2.19020867 4.48673816 0 0 Z " fill="#FEFEFE" transform="translate(80,11)"/>
<path d="M0 0 C6.93 0 13.86 0 21 0 C21.04535743 9.4584202 21.08197715 18.91676702 21.10362434 28.3752718 C21.11401891 32.76820765 21.12809814 37.16106461 21.15087891 41.55395508 C21.17276278 45.80093844 21.18460109 50.04784638 21.18975449 54.29488182 C21.19342254 55.90742364 21.20058454 57.51996177 21.21146011 59.13247108 C21.29761204 72.4472865 21.36729829 84.95739827 12.57421875 95.75 C5.67209243 102.60074573 -4.26212412 104.21820657 -13.625 104.4375 C-24.12103487 104.10309396 -33.72158228 101.76143018 -42 95 C-44.32611106 92.15852302 -46.2400631 89.21939677 -48 86 C-45.88060821 82.28939292 -43.5076108 79.00116082 -40.8125 75.6875 C-39.73935547 74.36298828 -39.73935547 74.36298828 -38.64453125 73.01171875 C-38.10183594 72.34785156 -37.55914063 71.68398437 -37 71 C-35.1171875 71.328125 -35.1171875 71.328125 -33 72 C-31.6459068 73.98600337 -30.31542376 75.98817543 -29 78 C-24.33786154 82.88414505 -19.79731177 84.75910914 -13 85 C-8.65513149 84.28928795 -5.8598559 83.05401691 -3.0625 79.625 C-1.07242121 74.70833474 -0.85935796 70.09905627 -0.79467773 64.82299805 C-0.78477814 64.12001083 -0.77487854 63.41702362 -0.76467896 62.69273376 C-0.7332367 60.38242901 -0.70837532 58.07210374 -0.68359375 55.76171875 C-0.66300928 54.15460188 -0.64201242 52.54749024 -0.62062073 50.94038391 C-0.56555421 46.72036998 -0.51607724 42.50030844 -0.46777344 38.2802124 C-0.41744549 33.96996854 -0.3618185 29.6597934 -0.30664062 25.34960938 C-0.19924777 16.89979624 -0.09825126 8.44992438 0 0 Z " fill="#FEFEFE" transform="translate(871,11)"/>
</svg>
